<svg version="1.1" id="Layer_1" xmlns="http://www.w3.org/2000/svg" xmlns:xlink="http://www.w3.org/1999/xlink" x="0px" y="0px"
	 width="100%" viewBox="0 0 354 145" enable-background="new 0 0 354 145" xml:space="preserve">
<path fill="#000000" opacity="1.000000" stroke="none" 
	d="
M123.000000,146.000000 
	C110.645775,146.000000 98.291542,146.000000 85.341309,145.614044 
	C85.087227,143.669632 85.429161,142.111176 85.771858,140.549210 
	C84.711296,140.136292 83.830177,139.688965 82.895905,139.446136 
	C75.948563,137.640442 68.996788,135.850983 62.034687,134.103104 
	C51.024376,131.338867 45.189606,134.818161 42.000000,146.000000 
	C28.389452,146.000000 14.778905,146.000000 1.000000,146.000000 
	C1.000000,124.312729 1.000000,102.625023 1.301299,80.186813 
	C3.057252,81.558784 4.575351,83.640900 5.955149,85.810966 
	C10.902494,93.591820 15.697377,101.473457 20.839031,109.122650 
	C21.581612,110.227379 23.905203,110.269379 25.497162,110.803177 
	C25.923965,109.355812 27.005875,107.731216 26.670134,106.490143 
	C24.650051,99.022827 21.780855,91.752625 20.208923,84.205437 
	C18.477102,75.890579 9.491493,71.018059 1.000000,74.000000 
	C1.000000,49.735088 1.000000,25.470179 1.000000,1.000000 
	C28.353886,1.000000 55.708282,1.000000 83.786049,1.349011 
	C82.444366,3.132824 80.379311,4.567626 78.314262,6.002428 
	C78.528542,6.521026 78.742828,7.039625 78.957115,7.558224 
	C80.276291,8.038442 81.567047,8.627637 82.919472,8.980394 
	C89.478317,10.691165 96.097420,12.185256 102.613144,14.043711 
	C112.765793,16.939516 121.758484,14.213918 123.000000,1.000000 
	C200.232834,1.000000 277.465668,1.000000 355.000000,1.000000 
	C355.000000,35.686977 355.000000,70.374832 354.679749,105.823257 
	C352.227783,100.962509 349.873444,95.412766 348.036011,89.696846 
	C346.607147,85.251747 344.591339,82.510307 339.283234,84.367134 
	C336.292755,93.039040 333.244781,101.877693 330.172729,110.786140 
	C334.293427,111.295143 338.224670,111.952011 338.190735,105.866531 
	C342.366180,106.669052 347.892944,103.433891 348.315857,111.000000 
	C350.711395,111.000000 352.855682,111.000000 355.000000,111.000000 
	C355.000000,122.647377 355.000000,134.294754 355.000000,146.000000 
	C278.645782,146.000000 202.291550,146.000000 125.487259,145.645142 
	C132.534210,134.828049 138.861343,123.757355 143.278442,111.600479 
	C144.427261,108.438728 143.837448,106.600159 142.038269,105.610550 
	C135.142776,111.938652 127.920250,117.420700 122.161629,124.154640 
	C115.616486,131.808289 116.312668,136.160965 122.575363,144.213226 
	C122.917343,144.652924 122.867477,145.397400 123.000000,146.000000 
M124.497177,30.999039 
	C122.257393,29.092644 120.100136,27.077959 117.764183,25.297756 
	C104.449692,15.150970 88.964783,11.913423 73.004196,14.318876 
	C57.424721,16.666893 44.369919,24.642643 34.657520,37.729683 
	C19.549629,58.086914 18.168278,86.765755 32.706532,107.841423 
	C45.631599,126.578491 63.991703,136.058701 87.671318,134.127655 
	C106.385902,132.601501 120.641182,123.862976 131.273972,109.097389 
	C148.526382,85.139252 144.908096,51.265308 124.497177,30.999039 
M242.495056,65.000000 
	C248.469635,64.393494 254.443604,63.780811 260.420044,63.193218 
	C260.857483,63.150215 261.316254,63.268661 261.759186,63.346043 
	C264.886353,63.892372 268.006592,64.885666 271.139099,64.924591 
	C285.113647,65.098213 285.114868,65.000015 284.999969,51.092945 
	C284.956207,45.795269 284.908447,45.756641 279.000000,46.505222 
	C279.000000,47.777203 279.003113,49.087029 278.999512,50.396835 
	C278.976166,58.838879 276.432007,61.025948 267.888611,60.005028 
	C264.922363,59.650574 263.318939,58.051182 262.989624,55.070736 
	C262.655731,52.049328 262.225159,49.038605 261.881012,46.365784 
	C256.984680,45.041412 255.590240,47.008472 255.957611,51.156517 
	C256.185944,53.734653 256.000000,56.349480 256.000000,58.651024 
	C251.927017,59.155994 248.526550,59.908489 245.118988,59.942196 
	C231.132996,60.080517 217.141281,59.822197 203.159622,60.104454 
	C198.760239,60.193268 197.719086,58.617828 197.929108,54.610397 
	C198.213989,49.174786 198.000000,43.713024 198.000000,38.228401 
	C195.792526,38.228401 194.055191,38.228401 192.000061,38.228401 
	C192.000061,45.248295 192.022202,52.045467 191.992157,58.842407 
	C191.972565,63.272736 193.760223,65.184265 198.537582,65.095596 
	C212.853027,64.829910 227.176575,65.000000 242.495056,65.000000 
M246.028152,91.168846 
	C245.633636,88.825638 245.239136,86.482430 244.862198,84.243652 
	C242.428314,84.243652 240.396698,84.243652 238.222031,84.243652 
	C240.616287,93.320610 242.940933,102.133682 245.202072,110.705956 
	C248.880478,111.656639 250.794617,110.597466 251.515137,107.088844 
	C252.254517,103.488205 253.428284,99.976761 254.707977,95.357765 
	C255.967346,100.174484 256.827393,104.170517 258.127350,108.017914 
	C258.532837,109.218048 260.061981,110.702705 261.195160,110.810318 
	C262.383026,110.923141 264.558441,109.779877 264.847229,108.769638 
	C267.136139,100.762650 269.077911,92.656403 271.244843,84.113319 
	C267.422638,84.113693 263.588654,82.555359 263.817505,88.925545 
	C263.932343,92.123535 262.366119,95.381920 261.429626,99.136223 
	C260.481415,95.611496 259.741333,92.520416 258.808899,89.488518 
	C257.844757,86.353546 257.591370,82.136513 252.236267,84.396706 
	C251.068344,88.799377 249.884766,93.261093 248.494919,98.500336 
	C247.642105,95.814217 247.025085,93.870796 246.028152,91.168846 
M140.461014,49.948521 
	C142.314255,55.850235 143.921158,61.844040 146.084198,67.629944 
	C148.685974,74.589409 158.468201,77.230705 164.879135,71.951530 
	C157.834564,60.782688 150.756516,49.443630 143.467743,38.241669 
	C142.923065,37.404556 140.536530,36.922173 139.613403,37.414169 
	C138.704666,37.898495 138.051437,39.895714 138.199310,41.118713 
	C138.529388,43.848927 139.428406,46.510357 140.461014,49.948521 
M46.019135,18.413271 
	C47.888683,13.395135 46.213936,9.202441 42.917618,5.438977 
	C41.279381,3.568575 39.902855,3.241437 38.480999,5.933761 
	C33.076206,16.167885 27.516478,26.320278 22.000023,36.495285 
	C20.159746,39.889648 20.874107,42.294659 24.805939,43.636631 
	C30.899576,37.220570 37.107895,30.801859 43.147846,24.228449 
	C44.415066,22.849310 45.062737,20.900902 46.019135,18.413271 
M320.601685,96.083267 
	C319.233032,93.726196 317.429108,91.513672 316.588104,88.981361 
	C314.936249,84.007599 311.727295,83.159904 307.244568,84.381134 
	C307.244568,93.267700 307.244568,102.012398 307.244568,110.759628 
	C309.236786,110.759628 310.975006,110.759628 313.078735,110.759628 
	C313.078735,105.518242 313.078735,100.502998 313.078735,94.797668 
	C315.617645,99.188866 318.241791,102.693802 319.753204,106.626404 
	C321.329926,110.728943 323.748993,111.719208 327.697693,110.736855 
	C327.697693,101.872047 327.697693,92.984642 327.697693,83.933044 
	C325.642120,84.041161 323.899353,84.132820 321.829224,84.241699 
	C321.829224,88.900658 321.829224,93.179321 321.829224,97.457985 
	C321.580566,97.395683 321.309418,97.373520 321.093628,97.252563 
	C320.999146,97.199615 321.017792,96.944847 320.601685,96.083267 
M290.031647,99.792946 
	C293.882416,96.740051 294.004028,92.207848 292.608459,88.554245 
	C291.132751,84.690826 286.983398,83.532303 282.631470,83.943634 
	C279.551605,84.234726 276.422028,84.000000 273.203339,84.000000 
	C273.203339,93.186180 273.203339,101.911888 273.203339,110.811249 
	C275.473816,110.811249 277.540649,110.811249 280.137573,110.811249 
	C280.137573,107.458313 280.137573,104.267609 280.137573,101.076897 
	C280.706177,100.847954 281.274780,100.619003 281.843414,100.390053 
	C282.913574,102.405815 284.239807,104.329895 285.001190,106.456223 
	C286.637726,111.026566 289.671021,111.882797 293.909821,110.563637 
	C292.551422,107.100990 291.276947,103.852264 290.031647,99.792946 
M211.300934,108.969017 
	C215.314926,104.055557 215.475983,98.620560 214.309952,92.592781 
	C213.524994,88.534927 212.256271,84.924637 208.200470,84.262627 
	C203.591187,83.510284 198.764664,84.088814 194.339157,84.088814 
	C194.339157,93.459785 194.339157,102.184837 194.339157,111.951134 
	C200.050644,110.926872 205.264633,109.991837 211.300934,108.969017 
M216.462555,106.030327 
	C215.976349,107.538528 215.490158,109.046722 214.936829,110.763176 
	C217.416855,110.763176 219.663773,110.763176 221.859985,110.763176 
	C222.509933,103.243156 227.982529,106.908554 231.435349,105.947380 
	C233.194870,111.541138 233.194870,111.541138 239.578262,110.276230 
	C236.604675,101.482346 233.657349,92.766197 230.301666,82.842361 
	C227.681183,84.132248 224.266571,84.675812 223.518204,86.386047 
	C220.842712,92.500412 219.071503,99.010468 216.462555,106.030327 
M317.902832,46.376610 
	C311.684448,45.669689 306.455261,48.604073 306.132111,53.549175 
	C305.949707,56.341049 306.144379,59.998577 307.776062,61.850082 
	C309.712952,64.047951 313.376953,64.723816 317.361572,66.548950 
	C314.259430,68.401443 311.269043,70.187195 308.229401,72.002373 
	C310.155609,76.470528 312.602295,77.317268 316.873505,74.645622 
	C323.579895,70.450768 327.023621,57.122292 322.937256,50.135948 
	C322.096985,48.699352 320.008636,47.992760 317.902832,46.376610 
M299.952179,46.811417 
	C298.147278,46.457119 296.342377,46.102825 294.000000,45.643017 
	C294.000000,50.220726 294.331696,54.198254 293.894226,58.089306 
	C293.549286,61.157330 292.927460,64.606903 291.193787,66.987816 
	C289.524353,69.280464 286.270721,70.419563 283.646667,72.108246 
	C285.863068,76.403679 288.937317,77.549423 292.919373,74.383629 
	C295.378693,72.428429 298.222626,69.637802 298.738495,66.826706 
	C299.880005,60.606007 299.660980,54.135647 299.952179,46.811417 
M344.985321,58.822586 
	C340.458588,59.406898 335.931854,59.991215 331.237000,60.597229 
	C330.899078,61.754715 330.477997,63.197140 330.050354,64.661987 
	C337.557404,64.661987 344.749420,64.661987 351.922058,64.661987 
	C352.174103,53.140995 348.590668,48.089638 337.413422,46.117229 
	C339.287994,49.185104 340.510315,51.256294 341.804779,53.281364 
	C342.823029,54.874344 343.930359,56.410412 344.985321,58.822586 
M297.000183,86.720474 
	C297.000183,94.773613 297.000183,102.826759 297.000183,111.060005 
	C299.323334,110.956543 301.057129,110.879333 302.779358,110.802635 
	C302.779358,101.720802 302.779358,93.015022 302.779358,83.043022 
	C300.481934,84.126991 298.742523,84.947670 297.000183,86.720474 
M270.629761,72.996262 
	C272.037781,72.920975 273.445831,72.845688 274.745331,72.776199 
	C274.745331,70.686890 274.745331,68.962746 274.745331,67.216805 
	C272.760132,67.216805 271.039490,67.216805 268.737061,67.216805 
	C269.091583,69.315414 269.398102,71.129822 270.629761,72.996262 
M257.155396,37.319244 
	C255.167175,41.797668 256.332428,43.165993 261.832489,42.597862 
	C261.832489,40.882870 261.832489,39.148735 261.832489,37.022148 
	C260.458832,37.022148 259.212097,37.022148 257.155396,37.319244 
M277.671997,72.944412 
	C279.067627,72.944412 280.463226,72.944412 281.736267,72.944412 
	C281.736267,70.656639 281.736267,68.930511 281.736267,67.230896 
	C280.076538,67.230896 278.683655,67.230896 277.051147,67.230896 
	C277.051147,69.062096 277.051147,70.666428 277.671997,72.944412 
z"/>
<path fill="#6598CC" opacity="1.000000" stroke="none" 
	d="
M122.531342,1.000000 
	C121.758484,14.213918 112.765793,16.939516 102.613144,14.043711 
	C96.097420,12.185256 89.478317,10.691165 82.919472,8.980394 
	C81.567047,8.627637 80.276291,8.038442 78.957115,7.558224 
	C78.742828,7.039625 78.528542,6.521026 78.314262,6.002428 
	C80.379311,4.567626 82.444366,3.132824 84.254707,1.349011 
	C96.687561,1.000000 109.375122,1.000000 122.531342,1.000000 
z"/>
<path fill="#3E5277" opacity="1.000000" stroke="none" 
	d="
M123.333336,146.000000 
	C122.867477,145.397400 122.917343,144.652924 122.575363,144.213226 
	C116.312668,136.160965 115.616486,131.808289 122.161629,124.154640 
	C127.920250,117.420700 135.142776,111.938652 142.038269,105.610550 
	C143.837448,106.600159 144.427261,108.438728 143.278442,111.600479 
	C138.861343,123.757355 132.534210,134.828049 125.018600,145.645142 
	C124.555557,146.000000 124.111107,146.000000 123.333336,146.000000 
z"/>
<path fill="#F39638" opacity="1.000000" stroke="none" 
	d="
M1.000000,74.428467 
	C9.491493,71.018059 18.477102,75.890579 20.208923,84.205437 
	C21.780855,91.752625 24.650051,99.022827 26.670134,106.490143 
	C27.005875,107.731216 25.923965,109.355812 25.497162,110.803177 
	C23.905203,110.269379 21.581612,110.227379 20.839031,109.122650 
	C15.697377,101.473457 10.902494,93.591820 5.955149,85.810966 
	C4.575351,83.640900 3.057252,81.558784 1.301299,79.718155 
	C1.000000,78.285645 1.000000,76.571281 1.000000,74.428467 
z"/>
<path fill="#088676" opacity="1.000000" stroke="none" 
	d="
M42.468658,146.000000 
	C45.189606,134.818161 51.024376,131.338867 62.034687,134.103104 
	C68.996788,135.850983 75.948563,137.640442 82.895905,139.446136 
	C83.830177,139.688965 84.711296,140.136292 85.771858,140.549210 
	C85.429161,142.111176 85.087227,143.669632 84.872650,145.614044 
	C70.979103,146.000000 56.958210,146.000000 42.468658,146.000000 
z"/>
<path fill="#FFFFFF" opacity="1.000000" stroke="none" 
	d="
M355.000000,110.583336 
	C352.855682,111.000000 350.711395,111.000000 348.315857,111.000000 
	C347.892944,103.433891 342.366180,106.669052 338.190735,105.866531 
	C338.224670,111.952011 334.293427,111.295143 330.172729,110.786140 
	C333.244781,101.877693 336.292755,93.039040 339.283234,84.367134 
	C344.591339,82.510307 346.607147,85.251747 348.036011,89.696846 
	C349.873444,95.412766 352.227783,100.962509 354.679749,106.291916 
	C355.000000,107.388893 355.000000,108.777779 355.000000,110.583336 
z"/>
<path fill="#FFFFFF" opacity="1.000000" stroke="none" 
	d="
M124.749603,31.251514 
	C144.908096,51.265308 148.526382,85.139252 131.273972,109.097389 
	C120.641182,123.862976 106.385902,132.601501 87.671318,134.127655 
	C63.991703,136.058701 45.631599,126.578491 32.706532,107.841423 
	C18.168278,86.765755 19.549629,58.086914 34.657520,37.729683 
	C44.369919,24.642643 57.424721,16.666893 73.004196,14.318876 
	C88.964783,11.913423 104.449692,15.150970 117.764183,25.297756 
	C120.100136,27.077959 122.257393,29.092644 124.749603,31.251514 
M53.737133,119.975563 
	C65.855522,126.653458 78.468506,129.835785 92.469543,127.087448 
	C117.075623,122.257408 134.071716,102.035278 135.850632,78.324890 
	C137.371765,58.050365 129.418503,40.964504 112.742668,29.615314 
	C94.531960,17.221523 75.171463,16.640213 55.322811,27.823065 
	C31.897179,41.021210 21.709288,73.171616 34.730434,98.364670 
	C39.186008,106.985214 45.598141,113.707886 53.737133,119.975563 
z"/>
<path fill="#FFFFFF" opacity="1.000000" stroke="none" 
	d="
M241.996002,65.000000 
	C227.176575,65.000000 212.853027,64.829910 198.537582,65.095596 
	C193.760223,65.184265 191.972565,63.272736 191.992157,58.842407 
	C192.022202,52.045467 192.000061,45.248295 192.000061,38.228401 
	C194.055191,38.228401 195.792526,38.228401 198.000000,38.228401 
	C198.000000,43.713024 198.213989,49.174786 197.929108,54.610397 
	C197.719086,58.617828 198.760239,60.193268 203.159622,60.104454 
	C217.141281,59.822197 231.132996,60.080517 245.118988,59.942196 
	C248.526550,59.908489 251.927017,59.155994 256.000000,58.651024 
	C256.000000,56.349480 256.185944,53.734653 255.957611,51.156517 
	C255.590240,47.008472 256.984680,45.041412 261.881012,46.365784 
	C262.225159,49.038605 262.655731,52.049328 262.989624,55.070736 
	C263.318939,58.051182 264.922363,59.650574 267.888611,60.005028 
	C276.432007,61.025948 278.976166,58.838879 278.999512,50.396835 
	C279.003113,49.087029 279.000000,47.777203 279.000000,46.505222 
	C284.908447,45.756641 284.956207,45.795269 284.999969,51.092945 
	C285.114868,65.000015 285.113647,65.098213 271.139099,64.924591 
	C268.006592,64.885666 264.886353,63.892372 261.759186,63.346043 
	C261.316254,63.268661 260.857483,63.150215 260.420044,63.193218 
	C254.443604,63.780811 248.469635,64.393494 241.996002,65.000000 
z"/>
<path fill="#FFFFFF" opacity="1.000000" stroke="none" 
	d="
M246.218109,91.548111 
	C247.025085,93.870796 247.642105,95.814217 248.494919,98.500336 
	C249.884766,93.261093 251.068344,88.799377 252.236267,84.396706 
	C257.591370,82.136513 257.844757,86.353546 258.808899,89.488518 
	C259.741333,92.520416 260.481415,95.611496 261.429626,99.136223 
	C262.366119,95.381920 263.932343,92.123535 263.817505,88.925545 
	C263.588654,82.555359 267.422638,84.113693 271.244843,84.113319 
	C269.077911,92.656403 267.136139,100.762650 264.847229,108.769638 
	C264.558441,109.779877 262.383026,110.923141 261.195160,110.810318 
	C260.061981,110.702705 258.532837,109.218048 258.127350,108.017914 
	C256.827393,104.170517 255.967346,100.174484 254.707977,95.357765 
	C253.428284,99.976761 252.254517,103.488205 251.515137,107.088844 
	C250.794617,110.597466 248.880478,111.656639 245.202072,110.705956 
	C242.940933,102.133682 240.616287,93.320610 238.222031,84.243652 
	C240.396698,84.243652 242.428314,84.243652 244.862198,84.243652 
	C245.239136,86.482430 245.633636,88.825638 246.218109,91.548111 
z"/>
<path fill="#71B639" opacity="1.000000" stroke="none" 
	d="
M140.278320,49.574165 
	C139.428406,46.510357 138.529388,43.848927 138.199310,41.118713 
	C138.051437,39.895714 138.704666,37.898495 139.613403,37.414169 
	C140.536530,36.922173 142.923065,37.404556 143.467743,38.241669 
	C150.756516,49.443630 157.834564,60.782688 164.879135,71.951530 
	C158.468201,77.230705 148.685974,74.589409 146.084198,67.629944 
	C143.921158,61.844040 142.314255,55.850235 140.278320,49.574165 
z"/>
<path fill="#E73B3B" opacity="1.000000" stroke="none" 
	d="
M46.007515,18.814041 
	C45.062737,20.900902 44.415066,22.849310 43.147846,24.228449 
	C37.107895,30.801859 30.899576,37.220570 24.805939,43.636631 
	C20.874107,42.294659 20.159746,39.889648 22.000023,36.495285 
	C27.516478,26.320278 33.076206,16.167885 38.480999,5.933761 
	C39.902855,3.241437 41.279381,3.568575 42.917618,5.438977 
	C46.213936,9.202441 47.888683,13.395135 46.007515,18.814041 
z"/>
<path fill="#FFFFFF" opacity="1.000000" stroke="none" 
	d="
M320.793365,96.432495 
	C321.017792,96.944847 320.999146,97.199615 321.093628,97.252563 
	C321.309418,97.373520 321.580566,97.395683 321.829224,97.457985 
	C321.829224,93.179321 321.829224,88.900658 321.829224,84.241699 
	C323.899353,84.132820 325.642120,84.041161 327.697693,83.933044 
	C327.697693,92.984642 327.697693,101.872047 327.697693,110.736855 
	C323.748993,111.719208 321.329926,110.728943 319.753204,106.626404 
	C318.241791,102.693802 315.617645,99.188866 313.078735,94.797668 
	C313.078735,100.502998 313.078735,105.518242 313.078735,110.759628 
	C310.975006,110.759628 309.236786,110.759628 307.244568,110.759628 
	C307.244568,102.012398 307.244568,93.267700 307.244568,84.381134 
	C311.727295,83.159904 314.936249,84.007599 316.588104,88.981361 
	C317.429108,91.513672 319.233032,93.726196 320.793365,96.432495 
z"/>
<path fill="#FFFFFF" opacity="1.000000" stroke="none" 
	d="
M290.017059,100.198242 
	C291.276947,103.852264 292.551422,107.100990 293.909821,110.563637 
	C289.671021,111.882797 286.637726,111.026566 285.001190,106.456223 
	C284.239807,104.329895 282.913574,102.405815 281.843414,100.390053 
	C281.274780,100.619003 280.706177,100.847954 280.137573,101.076897 
	C280.137573,104.267609 280.137573,107.458313 280.137573,110.811249 
	C277.540649,110.811249 275.473816,110.811249 273.203339,110.811249 
	C273.203339,101.911888 273.203339,93.186180 273.203339,84.000000 
	C276.422028,84.000000 279.551605,84.234726 282.631470,83.943634 
	C286.983398,83.532303 291.132751,84.690826 292.608459,88.554245 
	C294.004028,92.207848 293.882416,96.740051 290.017059,100.198242 
M280.049194,94.279266 
	C281.748169,94.498421 283.592590,95.190292 285.082977,94.731628 
	C285.797577,94.511711 285.842255,92.114914 286.190338,90.704002 
	C284.464844,90.482147 282.712585,90.016022 281.031525,90.200096 
	C280.577942,90.249771 280.340271,92.271652 280.049194,94.279266 
z"/>
<path fill="#FFFFFF" opacity="1.000000" stroke="none" 
	d="
M210.889771,109.012909 
	C205.264633,109.991837 200.050644,110.926872 194.339157,111.951134 
	C194.339157,102.184837 194.339157,93.459785 194.339157,84.088814 
	C198.764664,84.088814 203.591187,83.510284 208.200470,84.262627 
	C212.256271,84.924637 213.524994,88.534927 214.309952,92.592781 
	C215.475983,98.620560 215.314926,104.055557 210.889771,109.012909 
M201.000000,94.654175 
	C201.000000,98.078697 201.000000,101.503220 201.000000,104.910461 
	C207.895523,104.942444 208.115387,104.422539 208.051178,95.323776 
	C208.016327,90.387245 205.401917,89.547104 201.000000,90.230972 
	C201.000000,91.425049 201.000000,92.567772 201.000000,94.654175 
z"/>
<path fill="#FFFFFF" opacity="1.000000" stroke="none" 
	d="
M216.710388,105.700577 
	C219.071503,99.010468 220.842712,92.500412 223.518204,86.386047 
	C224.266571,84.675812 227.681183,84.132248 230.301666,82.842361 
	C233.657349,92.766197 236.604675,101.482346 239.578262,110.276230 
	C233.194870,111.541138 233.194870,111.541138 231.435349,105.947380 
	C227.982529,106.908554 222.509933,103.243156 221.859985,110.763176 
	C219.663773,110.763176 217.416855,110.763176 214.936829,110.763176 
	C215.490158,109.046722 215.976349,107.538528 216.710388,105.700577 
z"/>
<path fill="#FFFFFF" opacity="1.000000" stroke="none" 
	d="
M318.199219,46.663147 
	C320.008636,47.992760 322.096985,48.699352 322.937256,50.135948 
	C327.023621,57.122292 323.579895,70.450768 316.873505,74.645622 
	C312.602295,77.317268 310.155609,76.470528 308.229401,72.002373 
	C311.269043,70.187195 314.259430,68.401443 317.361572,66.548950 
	C313.376953,64.723816 309.712952,64.047951 307.776062,61.850082 
	C306.144379,59.998577 305.949707,56.341049 306.132111,53.549175 
	C306.455261,48.604073 311.684448,45.669689 318.199219,46.663147 
M313.656555,58.962940 
	C314.957214,59.353180 316.257874,59.743416 317.996124,60.264935 
	C317.996124,57.714447 318.306366,55.674244 317.876617,53.804062 
	C317.629456,52.728321 316.233734,51.265148 315.263794,51.192371 
	C314.318329,51.121429 312.586914,52.466984 312.397522,53.426819 
	C312.086243,55.004456 312.741394,56.772793 313.656555,58.962940 
z"/>
<path fill="#FFFFFF" opacity="1.000000" stroke="none" 
	d="
M299.974518,47.289261 
	C299.660980,54.135647 299.880005,60.606007 298.738495,66.826706 
	C298.222626,69.637802 295.378693,72.428429 292.919373,74.383629 
	C288.937317,77.549423 285.863068,76.403679 283.646667,72.108246 
	C286.270721,70.419563 289.524353,69.280464 291.193787,66.987816 
	C292.927460,64.606903 293.549286,61.157330 293.894226,58.089306 
	C294.331696,54.198254 294.000000,50.220726 294.000000,45.643017 
	C296.342377,46.102825 298.147278,46.457119 299.974518,47.289261 
z"/>
<path fill="#FFFFFF" opacity="1.000000" stroke="none" 
	d="
M344.991699,58.397171 
	C343.930359,56.410412 342.823029,54.874344 341.804779,53.281364 
	C340.510315,51.256294 339.287994,49.185104 337.413422,46.117229 
	C348.590668,48.089638 352.174103,53.140995 351.922058,64.661987 
	C344.749420,64.661987 337.557404,64.661987 330.050354,64.661987 
	C330.477997,63.197140 330.899078,61.754715 331.237000,60.597229 
	C335.931854,59.991215 340.458588,59.406898 344.991699,58.397171 
z"/>
<path fill="#FFFFFF" opacity="1.000000" stroke="none" 
	d="
M297.001648,86.244415 
	C298.742523,84.947670 300.481934,84.126991 302.779358,83.043022 
	C302.779358,93.015022 302.779358,101.720802 302.779358,110.802635 
	C301.057129,110.879333 299.323334,110.956543 297.000183,111.060005 
	C297.000183,102.826759 297.000183,94.773613 297.001648,86.244415 
z"/>
<path fill="#FFFFFF" opacity="1.000000" stroke="none" 
	d="
M270.167175,72.970245 
	C269.398102,71.129822 269.091583,69.315414 268.737061,67.216805 
	C271.039490,67.216805 272.760132,67.216805 274.745331,67.216805 
	C274.745331,68.962746 274.745331,70.686890 274.745331,72.776199 
	C273.445831,72.845688 272.037781,72.920975 270.167175,72.970245 
z"/>
<path fill="#FFFFFF" opacity="1.000000" stroke="none" 
	d="
M257.560364,37.170696 
	C259.212097,37.022148 260.458832,37.022148 261.832489,37.022148 
	C261.832489,39.148735 261.832489,40.882870 261.832489,42.597862 
	C256.332428,43.165993 255.167175,41.797668 257.560364,37.170696 
z"/>
<path fill="#FFFFFF" opacity="1.000000" stroke="none" 
	d="
M277.361572,72.607582 
	C277.051147,70.666428 277.051147,69.062096 277.051147,67.230896 
	C278.683655,67.230896 280.076538,67.230896 281.736267,67.230896 
	C281.736267,68.930511 281.736267,70.656639 281.736267,72.944412 
	C280.463226,72.944412 279.067627,72.944412 277.361572,72.607582 
z"/>
<path fill="#000000" opacity="1.000000" stroke="none" 
	d="
M53.409969,119.790710 
	C45.598141,113.707886 39.186008,106.985214 34.730434,98.364670 
	C21.709288,73.171616 31.897179,41.021210 55.322811,27.823065 
	C75.171463,16.640213 94.531960,17.221523 112.742668,29.615314 
	C129.418503,40.964504 137.371765,58.050365 135.850632,78.324890 
	C134.071716,102.035278 117.075623,122.257408 92.469543,127.087448 
	C78.468506,129.835785 65.855522,126.653458 53.409969,119.790710 
M127.998421,62.766483 
	C124.717316,50.299541 117.595383,40.856667 106.651833,33.863857 
	C95.502319,26.739437 83.533806,25.490347 71.168701,28.151110 
	C59.031727,30.762779 50.003067,38.414921 43.103340,48.569221 
	C37.108665,57.391556 35.387966,67.278038 35.979893,77.756752 
	C36.680809,90.164886 41.729996,100.774902 50.706394,108.925385 
	C60.061924,117.420135 71.256012,121.661888 84.459320,121.198761 
	C97.340126,120.746956 107.939964,115.691063 116.327652,106.871033 
	C127.748100,94.861931 131.456696,80.039589 127.998421,62.766483 
z"/>
<path fill="#000000" opacity="1.000000" stroke="none" 
	d="
M280.026367,93.833763 
	C280.340271,92.271652 280.577942,90.249771 281.031525,90.200096 
	C282.712585,90.016022 284.464844,90.482147 286.190338,90.704002 
	C285.842255,92.114914 285.797577,94.511711 285.082977,94.731628 
	C283.592590,95.190292 281.748169,94.498421 280.026367,93.833763 
z"/>
<path fill="#000000" opacity="1.000000" stroke="none" 
	d="
M201.000000,94.182335 
	C201.000000,92.567772 201.000000,91.425049 201.000000,90.230972 
	C205.401917,89.547104 208.016327,90.387245 208.051178,95.323776 
	C208.115387,104.422539 207.895523,104.942444 201.000000,104.910461 
	C201.000000,101.503220 201.000000,98.078697 201.000000,94.182335 
z"/>
<path fill="#000000" opacity="1.000000" stroke="none" 
	d="
M313.322815,58.711834 
	C312.741394,56.772793 312.086243,55.004456 312.397522,53.426819 
	C312.586914,52.466984 314.318329,51.121429 315.263794,51.192371 
	C316.233734,51.265148 317.629456,52.728321 317.876617,53.804062 
	C318.306366,55.674244 317.996124,57.714447 317.996124,60.264935 
	C316.257874,59.743416 314.957214,59.353180 313.322815,58.711834 
z"/>
<path fill="#FFFFFF" opacity="1.000000" stroke="none" 
	d="
M127.999329,63.205307 
	C131.456696,80.039589 127.748100,94.861931 116.327652,106.871033 
	C107.939964,115.691063 97.340126,120.746956 84.459320,121.198761 
	C71.256012,121.661888 60.061924,117.420135 50.706394,108.925385 
	C41.729996,100.774902 36.680809,90.164886 35.979893,77.756752 
	C35.387966,67.278038 37.108665,57.391556 43.103340,48.569221 
	C50.003067,38.414921 59.031727,30.762779 71.168701,28.151110 
	C83.533806,25.490347 95.502319,26.739437 106.651833,33.863857 
	C117.595383,40.856667 124.717316,50.299541 127.999329,63.205307 
M106.106499,107.328659 
	C109.617050,103.195930 111.601639,98.631477 110.841583,93.290527 
	C110.316330,93.119743 109.791077,92.948959 109.265823,92.778183 
	C107.816483,97.494606 106.367142,102.211037 104.357002,107.120720 
	C104.316559,107.660385 104.276115,108.200043 104.235672,108.739708 
	C104.675240,108.424805 105.114807,108.109894 106.106499,107.328659 
M106.987823,58.397533 
	C109.077545,52.681080 103.308464,41.912708 97.454567,40.383263 
	C99.607033,44.661205 101.793373,49.025425 103.998413,53.380173 
	C104.963737,55.286602 105.967278,57.173679 107.553200,59.576576 
	C107.890259,60.351540 108.010109,61.495716 108.599197,61.842293 
	C112.817902,64.324295 117.132080,66.644028 121.458153,69.038681 
	C121.831177,62.342461 113.666931,56.932545 106.987823,58.397533 
M84.996582,48.504871 
	C83.006104,50.413223 81.015625,52.321575 79.014626,54.240017 
	C87.191345,55.828449 94.861961,57.318569 103.195831,58.937531 
	C99.973389,52.383430 96.944695,46.223377 93.648277,39.518833 
	C90.566879,42.725700 88.031990,45.363815 84.996582,48.504871 
M58.026176,74.286682 
	C58.780918,75.511230 59.535656,76.735786 60.165451,77.757614 
	C64.151390,71.293777 68.069481,64.939980 72.502869,57.750534 
	C65.254478,58.092758 58.775238,58.398666 51.672558,58.734009 
	C53.953754,64.102333 55.954620,68.810944 58.026176,74.286682 
M66.604401,104.000000 
	C69.630074,103.783943 72.655746,103.567879 75.515709,103.363647 
	C70.257599,97.235306 65.514687,91.707428 60.312759,85.644569 
	C59.096180,91.516403 57.943146,97.081551 56.807884,102.560890 
	C60.292965,103.125259 62.993286,103.562546 66.604401,104.000000 
M108.999893,74.793701 
	C108.999893,78.706268 108.999893,82.618828 108.999893,88.121758 
	C113.878815,82.425873 117.797089,77.851501 121.959351,72.992287 
	C116.623505,69.908195 112.209839,67.357124 107.235184,64.481804 
	C107.945625,68.265816 108.472008,71.069458 108.999893,74.793701 
M86.956299,106.441757 
	C91.047104,108.118637 95.137917,109.795517 99.639473,111.640770 
	C101.772781,105.877266 103.656494,100.788063 105.389847,96.105087 
	C98.675575,98.854904 92.359154,101.424377 86.087242,104.098213 
	C85.907379,104.174896 86.199883,105.359581 86.956299,106.441757 
M69.977982,92.465126 
	C73.569794,95.177444 75.564278,99.992439 81.327980,100.446739 
	C80.821045,97.586952 79.818703,95.068985 78.308151,92.905930 
	C76.549171,90.387138 74.336098,88.186882 72.337151,85.833885 
	C69.909882,82.976715 67.312706,80.618607 62.631058,82.706070 
	C64.954514,85.861061 67.203941,88.915543 69.977982,92.465126 
M93.495705,65.996506 
	C97.407722,66.845306 100.920464,66.761292 102.701927,61.797871 
	C94.587181,60.247459 86.609627,58.723255 78.151901,57.107311 
	C79.319221,61.782864 80.997459,64.108383 85.258141,64.119438 
	C87.723129,64.125832 90.185074,65.304153 93.495705,65.996506 
M77.673004,62.139362 
	C77.007751,61.133255 76.342499,60.127148 75.356529,58.636005 
	C70.745506,66.200737 66.384827,73.354767 61.727219,80.995918 
	C69.864960,78.672615 69.926323,78.705032 72.271355,74.266357 
	C74.258118,70.505814 76.081200,66.658783 77.673004,62.139362 
M100.583832,89.043510 
	C97.538010,90.426804 94.536781,91.920593 91.437462,93.171326 
	C84.057442,96.149529 84.038712,96.103127 82.113480,103.452629 
	C90.531036,99.222702 97.929291,95.504997 106.415703,91.240471 
	C103.558716,89.998451 102.451248,89.517006 100.583832,89.043510 
M64.573067,55.000000 
	C67.665016,55.000000 70.756966,55.000000 74.371681,55.000000 
	C73.071068,52.110355 73.664108,48.608467 69.366226,49.144020 
	C66.807594,49.462852 64.194176,50.164295 61.687962,49.902687 
	C57.103157,49.424114 54.958981,52.030506 52.351902,56.099720 
	C56.693062,55.676392 60.161201,55.338196 64.573067,55.000000 
M102.000000,83.311226 
	C102.873863,85.189804 103.747726,87.068382 104.621582,88.946960 
	C105.225945,88.722931 105.830307,88.498909 106.434669,88.274879 
	C105.914200,80.577911 105.393730,72.880936 104.788826,63.935184 
	C101.522041,67.097610 99.019890,68.311951 100.794464,72.319336 
	C102.108475,75.286629 101.662132,79.033463 102.000000,83.311226 
M75.835930,46.727219 
	C75.618599,48.689178 75.401268,50.651134 75.183937,52.613094 
	C75.577766,52.651688 75.971596,52.690285 76.365425,52.728878 
	C81.014938,47.857628 85.664459,42.986374 90.221008,38.212521 
	C86.537743,37.083633 83.414902,38.292225 80.836624,41.586109 
	C79.527008,43.259205 77.830093,44.629139 75.835930,46.727219 
M48.995510,62.781239 
	C46.661163,68.990128 51.790958,79.348427 57.511307,80.505638 
	C55.233875,74.780708 52.920425,68.899620 50.520020,63.054241 
	C50.325336,62.580158 49.535137,62.350628 48.995510,62.781239 
M55.002644,95.623955 
	C56.172787,91.130974 57.342930,86.637985 58.536549,82.054855 
	C51.024384,83.206474 52.726181,89.546951 51.707520,94.034897 
	C51.287407,95.885780 52.786652,98.172333 53.412918,100.260727 
	C53.874714,100.120247 54.336514,99.979767 54.798313,99.839287 
	C54.865608,98.719215 54.932907,97.599136 55.002644,95.623955 
M112.512665,87.991493 
	C111.603569,88.721222 110.694473,89.450958 108.888756,90.900414 
	C110.997894,91.265793 112.424614,91.911530 112.818787,91.519394 
	C116.639687,87.718170 121.291153,84.412491 122.035492,79.430412 
	C119.313972,81.859718 116.159676,84.675331 112.512665,87.991493 
M54.999969,43.878613 
	C54.999969,43.067219 54.999969,42.255821 54.999969,41.214394 
	C48.929260,44.080933 51.562668,49.210720 51.053516,53.424683 
	C51.478302,53.557835 51.903084,53.690987 52.327869,53.824142 
	C53.218578,50.782848 54.109287,47.741550 54.999969,43.878613 
M43.966290,58.015743 
	C50.985905,56.963165 46.866623,51.870224 47.668381,48.543156 
	C45.535904,51.392372 43.836960,54.417000 42.199383,57.474495 
	C42.168617,57.531933 42.865173,57.978912 43.966290,58.015743 
M91.808708,111.973061 
	C88.081871,110.153564 84.355034,108.334068 80.628189,106.514580 
	C80.362663,107.114510 80.097130,107.714447 79.831604,108.314377 
	C83.428360,110.167313 86.970772,112.142967 90.663879,113.778328 
	C91.485237,114.142036 92.837273,113.307304 93.944977,113.024353 
	C93.501488,112.683617 93.057999,112.342880 91.808708,111.973061 
M74.509995,106.000198 
	C69.777962,106.000198 65.045921,106.000198 59.729465,106.000198 
	C63.500507,108.684349 75.493279,108.687889 78.975304,106.234398 
	C77.604500,106.145218 76.488670,106.072617 74.509995,106.000198 
M44.304256,64.971527 
	C45.505726,63.510933 46.707195,62.050339 47.908665,60.589745 
	C45.118046,62.329285 39.482426,60.954800 40.122459,66.963867 
	C41.578102,66.147736 42.566628,65.593498 44.304256,64.971527 
z"/>
<path fill="#000000" opacity="1.000000" stroke="none" 
	d="
M85.246841,48.253403 
	C88.031990,45.363815 90.566879,42.725700 93.648277,39.518833 
	C96.944695,46.223377 99.973389,52.383430 103.195831,58.937531 
	C94.861961,57.318569 87.191345,55.828449 79.014626,54.240017 
	C81.015625,52.321575 83.006104,50.413223 85.246841,48.253403 
z"/>
<path fill="#000000" opacity="1.000000" stroke="none" 
	d="
M57.990829,73.903122 
	C55.954620,68.810944 53.953754,64.102333 51.672558,58.734009 
	C58.775238,58.398666 65.254478,58.092758 72.502869,57.750534 
	C68.069481,64.939980 64.151390,71.293777 60.165451,77.757614 
	C59.535656,76.735786 58.780918,75.511230 57.990829,73.903122 
z"/>
<path fill="#000000" opacity="1.000000" stroke="none" 
	d="
M66.149002,103.999916 
	C62.993286,103.562546 60.292965,103.125259 56.807884,102.560890 
	C57.943146,97.081551 59.096180,91.516403 60.312759,85.644569 
	C65.514687,91.707428 70.257599,97.235306 75.515709,103.363647 
	C72.655746,103.567879 69.630074,103.783943 66.149002,103.999916 
z"/>
<path fill="#000000" opacity="1.000000" stroke="none" 
	d="
M108.999138,74.333405 
	C108.472008,71.069458 107.945625,68.265816 107.235184,64.481804 
	C112.209839,67.357124 116.623505,69.908195 121.959351,72.992287 
	C117.797089,77.851501 113.878815,82.425873 108.999893,88.121758 
	C108.999893,82.618828 108.999893,78.706268 108.999138,74.333405 
z"/>
<path fill="#000000" opacity="1.000000" stroke="none" 
	d="
M86.614212,106.234695 
	C86.199883,105.359581 85.907379,104.174896 86.087242,104.098213 
	C92.359154,101.424377 98.675575,98.854904 105.389847,96.105087 
	C103.656494,100.788063 101.772781,105.877266 99.639473,111.640770 
	C95.137917,109.795517 91.047104,108.118637 86.614212,106.234695 
z"/>
<path fill="#000000" opacity="1.000000" stroke="none" 
	d="
M69.715683,92.217575 
	C67.203941,88.915543 64.954514,85.861061 62.631058,82.706070 
	C67.312706,80.618607 69.909882,82.976715 72.337151,85.833885 
	C74.336098,88.186882 76.549171,90.387138 78.308151,92.905930 
	C79.818703,95.068985 80.821045,97.586952 81.327980,100.446739 
	C75.564278,99.992439 73.569794,95.177444 69.715683,92.217575 
z"/>
<path fill="#000000" opacity="1.000000" stroke="none" 
	d="
M93.072052,65.975784 
	C90.185074,65.304153 87.723129,64.125832 85.258141,64.119438 
	C80.997459,64.108383 79.319221,61.782864 78.151901,57.107311 
	C86.609627,58.723255 94.587181,60.247459 102.701927,61.797871 
	C100.920464,66.761292 97.407722,66.845306 93.072052,65.975784 
z"/>
<path fill="#000000" opacity="1.000000" stroke="none" 
	d="
M77.824860,62.494698 
	C76.081200,66.658783 74.258118,70.505814 72.271355,74.266357 
	C69.926323,78.705032 69.864960,78.672615 61.727219,80.995918 
	C66.384827,73.354767 70.745506,66.200737 75.356529,58.636005 
	C76.342499,60.127148 77.007751,61.133255 77.824860,62.494698 
z"/>
<path fill="#000000" opacity="1.000000" stroke="none" 
	d="
M100.963806,89.039536 
	C102.451248,89.517006 103.558716,89.998451 106.415703,91.240471 
	C97.929291,95.504997 90.531036,99.222702 82.113480,103.452629 
	C84.038712,96.103127 84.057442,96.149529 91.437462,93.171326 
	C94.536781,91.920593 97.538010,90.426804 100.963806,89.039536 
z"/>
<path fill="#000000" opacity="1.000000" stroke="none" 
	d="
M64.101204,55.000000 
	C60.161201,55.338196 56.693062,55.676392 52.351902,56.099720 
	C54.958981,52.030506 57.103157,49.424114 61.687962,49.902687 
	C64.194176,50.164295 66.807594,49.462852 69.366226,49.144020 
	C73.664108,48.608467 73.071068,52.110355 74.371681,55.000000 
	C70.756966,55.000000 67.665016,55.000000 64.101204,55.000000 
z"/>
<path fill="#000000" opacity="1.000000" stroke="none" 
	d="
M102.000000,82.872131 
	C101.662132,79.033463 102.108475,75.286629 100.794464,72.319336 
	C99.019890,68.311951 101.522041,67.097610 104.788826,63.935184 
	C105.393730,72.880936 105.914200,80.577911 106.434669,88.274879 
	C105.830307,88.498909 105.225945,88.722931 104.621582,88.946960 
	C103.747726,87.068382 102.873863,85.189804 102.000000,82.872131 
z"/>
<path fill="#000000" opacity="1.000000" stroke="none" 
	d="
M76.072098,46.431671 
	C77.830093,44.629139 79.527008,43.259205 80.836624,41.586109 
	C83.414902,38.292225 86.537743,37.083633 90.221008,38.212521 
	C85.664459,42.986374 81.014938,47.857628 76.365425,52.728878 
	C75.971596,52.690285 75.577766,52.651688 75.183937,52.613094 
	C75.401268,50.651134 75.618599,48.689178 76.072098,46.431671 
z"/>
<path fill="#000000" opacity="1.000000" stroke="none" 
	d="
M106.803337,59.210003 
	C113.666931,56.932545 121.831177,62.342461 121.458153,69.038681 
	C117.132080,66.644028 112.817902,64.324295 108.599197,61.842293 
	C108.010109,61.495716 107.890259,60.351540 107.213181,59.355370 
	C106.873154,59.134159 106.803337,59.210003 106.803337,59.210003 
z"/>
<path fill="#000000" opacity="1.000000" stroke="none" 
	d="
M49.008583,62.394348 
	C49.535137,62.350628 50.325336,62.580158 50.520020,63.054241 
	C52.920425,68.899620 55.233875,74.780708 57.511307,80.505638 
	C51.790958,79.348427 46.661163,68.990128 49.008583,62.394348 
z"/>
<path fill="#000000" opacity="1.000000" stroke="none" 
	d="
M55.001423,96.051514 
	C54.932907,97.599136 54.865608,98.719215 54.798313,99.839287 
	C54.336514,99.979767 53.874714,100.120247 53.412918,100.260727 
	C52.786652,98.172333 51.287407,95.885780 51.707520,94.034897 
	C52.726181,89.546951 51.024384,83.206474 58.536549,82.054855 
	C57.342930,86.637985 56.172787,91.130974 55.001423,96.051514 
z"/>
<path fill="#000000" opacity="1.000000" stroke="none" 
	d="
M106.913315,59.101852 
	C105.967278,57.173679 104.963737,55.286602 103.998413,53.380173 
	C101.793373,49.025425 99.607033,44.661205 97.454567,40.383263 
	C103.308464,41.912708 109.077545,52.681080 106.895584,58.803768 
	C106.803337,59.210003 106.873154,59.134159 106.913315,59.101852 
z"/>
<path fill="#000000" opacity="1.000000" stroke="none" 
	d="
M112.759026,87.741226 
	C116.159676,84.675331 119.313972,81.859718 122.035492,79.430412 
	C121.291153,84.412491 116.639687,87.718170 112.818787,91.519394 
	C112.424614,91.911530 110.997894,91.265793 108.888756,90.900414 
	C110.694473,89.450958 111.603569,88.721222 112.759026,87.741226 
z"/>
<path fill="#000000" opacity="1.000000" stroke="none" 
	d="
M104.917793,106.927467 
	C106.367142,102.211037 107.816483,97.494606 109.265823,92.778183 
	C109.791077,92.948959 110.316330,93.119743 110.841583,93.290527 
	C111.601639,98.631477 109.617050,103.195930 105.682060,107.337036 
	C105.144348,107.206100 105.031067,107.066788 104.917793,106.927467 
z"/>
<path fill="#000000" opacity="1.000000" stroke="none" 
	d="
M54.999985,44.289436 
	C54.109287,47.741550 53.218578,50.782848 52.327869,53.824142 
	C51.903084,53.690987 51.478302,53.557835 51.053516,53.424683 
	C51.562668,49.210720 48.929260,44.080933 54.999969,41.214394 
	C54.999969,42.255821 54.999969,43.067219 54.999985,44.289436 
z"/>
<path fill="#000000" opacity="1.000000" stroke="none" 
	d="
M43.594334,58.129940 
	C42.865173,57.978912 42.168617,57.531933 42.199383,57.474495 
	C43.836960,54.417000 45.535904,51.392372 47.668381,48.543156 
	C46.866623,51.870224 50.985905,56.963165 43.594334,58.129940 
z"/>
<path fill="#000000" opacity="1.000000" stroke="none" 
	d="
M92.211609,111.987602 
	C93.057999,112.342880 93.501488,112.683617 93.944977,113.024353 
	C92.837273,113.307304 91.485237,114.142036 90.663879,113.778328 
	C86.970772,112.142967 83.428360,110.167313 79.831604,108.314377 
	C80.097130,107.714447 80.362663,107.114510 80.628189,106.514580 
	C84.355034,108.334068 88.081871,110.153564 92.211609,111.987602 
z"/>
<path fill="#000000" opacity="1.000000" stroke="none" 
	d="
M74.941422,106.000107 
	C76.488670,106.072617 77.604500,106.145218 78.975304,106.234398 
	C75.493279,108.687889 63.500507,108.684349 59.729465,106.000198 
	C65.045921,106.000198 69.777962,106.000198 74.941422,106.000107 
z"/>
<path fill="#000000" opacity="1.000000" stroke="none" 
	d="
M43.929707,65.005402 
	C42.566628,65.593498 41.578102,66.147736 40.122459,66.963867 
	C39.482426,60.954800 45.118046,62.329285 47.908665,60.589745 
	C46.707195,62.050339 45.505726,63.510933 43.929707,65.005402 
z"/>
<path fill="#000000" opacity="1.000000" stroke="none" 
	d="
M105.405998,107.570206 
	C105.114807,108.109894 104.675240,108.424805 104.235672,108.739708 
	C104.276115,108.200043 104.316559,107.660385 104.637398,107.024094 
	C105.031067,107.066788 105.144348,107.206100 105.405998,107.570206 
z"/>
</svg>